<svg xmlns="http://www.w3.org/2000/svg" viewBox="0 0 100 100">
  <!-- Fondo circular -->
  <circle cx="50" cy="50" r="48" fill="#1e40af" stroke="#3b82f6" stroke-width="2"/>
  
  <!-- Balanza de la justicia -->
  <g transform="translate(50, 50)">
    <!-- Base -->
    <rect x="-3" y="25" width="6" height="8" fill="#ffffff"/>
    
    <!-- Poste -->
    <rect x="-2" y="-20" width="4" height="45" fill="#ffffff"/>
    
    <!-- Barra horizontal -->
    <rect x="-30" y="-20" width="60" height="3" fill="#ffffff"/>
    
    <!-- Plato izquierdo -->
    <ellipse cx="-25" cy="0" rx="12" ry="3" fill="#ffffff" opacity="0.8"/>
    <path d="M -37 -3 Q -37 -8 -25 -8 Q -13 -8 -13 -3 L -13 3 Q -13 8 -25 8 Q -37 8 -37 3 Z" fill="#ffffff"/>
    
    <!-- Plato derecho -->
    <ellipse cx="25" cy="0" rx="12" ry="3" fill="#ffffff" opacity="0.8"/>
    <path d="M 13 -3 Q 13 -8 25 -8 Q 37 -8 37 -3 L 37 3 Q 37 8 25 8 Q 13 8 13 3 Z" fill="#ffffff"/>
    
    <!-- Cadenas izquierda -->
    <line x1="-25" y1="-8" x2="-25" y2="-20" stroke="#ffffff" stroke-width="1.5"/>
    <line x1="-20" y1="-8" x2="-20" y2="-20" stroke="#ffffff" stroke-width="1.5"/>
    
    <!-- Cadenas derecha -->
    <line x1="25" y1="-8" x2="25" y2="-20" stroke="#ffffff" stroke-width="1.5"/>
    <line x1="20" y1="-8" x2="20" y2="-20" stroke="#ffffff" stroke-width="1.5"/>
  </g>
</svg>

